<?xml version="1.0" encoding="UTF-8"?>
<svg xmlns="http://www.w3.org/2000/svg" width="1200" height="630" viewBox="0 0 1200 630">
  <defs>
    <linearGradient id="bg" x1="0" y1="0" x2="1" y2="1"><stop stop-color="#f9fbf9"/><stop offset="1" stop-color="#edf7f1"/></linearGradient>
    <filter id="shadow"><feDropShadow dx="0" dy="5" stdDeviation="8" flood-color="#163c28" flood-opacity=".12"/></filter>
  </defs>
  <rect width="1200" height="630" fill="url(#bg)"/>
  <circle cx="1060" cy="70" r="170" fill="#2f7a52" opacity=".07"/>
  <text x="60" y="58" font-family="Arial, sans-serif" font-size="18" font-weight="800" fill="#2f7a52">WAFLY × n8n</text>
  <text x="60" y="96" font-family="Arial, sans-serif" font-size="27" font-weight="750" fill="#17211b">Qualify inbound WhatsApp leads with AI and hand hot ones to a human</text>
  <g fill="none" stroke="#99aaa0" stroke-width="2.5" stroke-linecap="round"><path d="M146,211.76470588235293 C145.65656565656565,211.76470588235293 145.65656565656565,211.76470588235293 145.31313131313132,211.76470588235293"/><path d="M277.3131313131313,211.76470588235293 C276.969696969697,211.76470588235293 276.969696969697,211.76470588235293 276.62626262626264,211.76470588235293"/><path d="M408.62626262626264,211.76470588235293 C418.3838383838384,211.76470588235293 418.3838383838384,201.47058823529412 428.14141414141415,201.47058823529412"/><path d="M408.62626262626264,211.76470588235293 C342.62626262626264,211.76470588235293 342.62626262626264,500 276.62626262626264,500"/><path stroke-dasharray="6 6" d="M529.8383838383838,366.1764705882353 C478.98989898989896,366.1764705882353 478.98989898989896,201.47058823529412 428.14141414141415,201.47058823529412"/><path stroke-dasharray="6 6" d="M681.3535353535353,366.1764705882353 C554.7474747474747,366.1764705882353 554.7474747474747,201.47058823529412 428.14141414141415,201.47058823529412"/><path d="M560.1414141414141,201.47058823529412 C585.0505050505051,201.47058823529412 585.0505050505051,211.76470588235293 609.959595959596,211.76470588235293"/><path d="M741.959595959596,211.76470588235293 C741.6161616161617,211.76470588235293 741.6161616161617,211.76470588235293 741.2727272727273,211.76470588235293"/><path d="M873.2727272727273,211.76470588235293 C872.9292929292928,211.76470588235293 872.9292929292928,211.76470588235293 872.5858585858585,211.76470588235293"/><path d="M1004.5858585858585,211.76470588235293 C1009.2929292929293,211.76470588235293 1009.2929292929293,150 1014,150"/><path d="M1004.5858585858585,211.76470588235293 C1009.2929292929293,211.76470588235293 1009.2929292929293,314.7058823529412 1014,314.7058823529412"/></g>
  <g filter="url(#shadow)" font-family="Arial, sans-serif"><g transform="translate(14 181.76470588235293)">
      <rect width="132" height="60" rx="12" fill="#fff" stroke="#d7ddd9"/>
      <rect width="8" height="60" rx="4" fill="#7c3aed"/>
      <circle cx="27" cy="22" r="9" fill="#7c3aed" opacity=".16"/>
      <circle cx="27" cy="22" r="4" fill="#7c3aed"/>
      <text x="18" y="46" font-size="10.5" font-weight="650" fill="#26312b">Wafly Inbound</text>
    </g><g transform="translate(145.31313131313132 181.76470588235293)">
      <rect width="132" height="60" rx="12" fill="#fff" stroke="#d7ddd9"/>
      <rect width="8" height="60" rx="4" fill="#64748b"/>
      <circle cx="27" cy="22" r="9" fill="#64748b" opacity=".16"/>
      <circle cx="27" cy="22" r="4" fill="#64748b"/>
      <text x="18" y="46" font-size="10.5" font-weight="650" fill="#26312b">Config</text>
    </g><g transform="translate(276.62626262626264 181.76470588235293)">
      <rect width="132" height="60" rx="12" fill="#fff" stroke="#d7ddd9"/>
      <rect width="8" height="60" rx="4" fill="#d97706"/>
      <circle cx="27" cy="22" r="9" fill="#d97706" opacity=".16"/>
      <circle cx="27" cy="22" r="4" fill="#d97706"/>
      <text x="18" y="46" font-size="10.5" font-weight="650" fill="#26312b">A customer wrote in?</text>
    </g><g transform="translate(428.14141414141415 171.47058823529412)">
      <rect width="132" height="60" rx="12" fill="#fff" stroke="#d7ddd9"/>
      <rect width="8" height="60" rx="4" fill="#2563eb"/>
      <circle cx="27" cy="22" r="9" fill="#2563eb" opacity=".16"/>
      <circle cx="27" cy="22" r="4" fill="#2563eb"/>
      <text x="18" y="46" font-size="10.5" font-weight="650" fill="#26312b">Qualify the lead</text>
    </g><g transform="translate(397.83838383838383 336.1764705882353)">
      <rect width="132" height="60" rx="12" fill="#fff" stroke="#d7ddd9"/>
      <rect width="8" height="60" rx="4" fill="#2563eb"/>
      <circle cx="27" cy="22" r="9" fill="#2563eb" opacity=".16"/>
      <circle cx="27" cy="22" r="4" fill="#2563eb"/>
      <text x="18" y="46" font-size="10.5" font-weight="650" fill="#26312b">OpenAI Chat Model</text>
    </g><g transform="translate(549.3535353535353 336.1764705882353)">
      <rect width="132" height="60" rx="12" fill="#fff" stroke="#d7ddd9"/>
      <rect width="8" height="60" rx="4" fill="#2563eb"/>
      <circle cx="27" cy="22" r="9" fill="#2563eb" opacity=".16"/>
      <circle cx="27" cy="22" r="4" fill="#2563eb"/>
      <text x="18" y="46" font-size="10.5" font-weight="650" fill="#26312b">Memory per phone number</text>
    </g><g transform="translate(609.959595959596 181.76470588235293)">
      <rect width="132" height="60" rx="12" fill="#fff" stroke="#d7ddd9"/>
      <rect width="8" height="60" rx="4" fill="#475569"/>
      <circle cx="27" cy="22" r="9" fill="#475569" opacity=".16"/>
      <circle cx="27" cy="22" r="4" fill="#475569"/>
      <text x="18" y="46" font-size="10.5" font-weight="650" fill="#26312b">Parse the qualification</text>
    </g><g transform="translate(741.2727272727273 181.76470588235293)">
      <rect width="132" height="60" rx="12" fill="#fff" stroke="#d7ddd9"/>
      <rect width="8" height="60" rx="4" fill="#2f7a52"/>
      <circle cx="27" cy="22" r="9" fill="#2f7a52" opacity=".16"/>
      <circle cx="27" cy="22" r="4" fill="#2f7a52"/>
      <text x="18" y="46" font-size="10.5" font-weight="650" fill="#26312b">Reply to the lead</text>
    </g><g transform="translate(872.5858585858585 181.76470588235293)">
      <rect width="132" height="60" rx="12" fill="#fff" stroke="#d7ddd9"/>
      <rect width="8" height="60" rx="4" fill="#d97706"/>
      <circle cx="27" cy="22" r="9" fill="#d97706" opacity=".16"/>
      <circle cx="27" cy="22" r="4" fill="#d97706"/>
      <text x="18" y="46" font-size="10.5" font-weight="650" fill="#26312b">Hot lead?</text>
    </g><g transform="translate(1014 120)">
      <rect width="132" height="60" rx="12" fill="#fff" stroke="#d7ddd9"/>
      <rect width="8" height="60" rx="4" fill="#2f7a52"/>
      <circle cx="27" cy="22" r="9" fill="#2f7a52" opacity=".16"/>
      <circle cx="27" cy="22" r="4" fill="#2f7a52"/>
      <text x="18" y="46" font-size="10.5" font-weight="650" fill="#26312b">Page the sales number</text>
    </g><g transform="translate(1014 284.7058823529412)">
      <rect width="132" height="60" rx="12" fill="#fff" stroke="#d7ddd9"/>
      <rect width="8" height="60" rx="4" fill="#64748b"/>
      <circle cx="27" cy="22" r="9" fill="#64748b" opacity=".16"/>
      <circle cx="27" cy="22" r="4" fill="#64748b"/>
      <text x="18" y="46" font-size="10.5" font-weight="650" fill="#26312b">Warm or cold, no handoff</text>
    </g><g transform="translate(276.62626262626264 470)">
      <rect width="132" height="60" rx="12" fill="#fff" stroke="#d7ddd9"/>
      <rect width="8" height="60" rx="4" fill="#64748b"/>
      <circle cx="27" cy="22" r="9" fill="#64748b" opacity=".16"/>
      <circle cx="27" cy="22" r="4" fill="#64748b"/>
      <text x="18" y="46" font-size="10.5" font-weight="650" fill="#26312b">Ignore (group, echo, no t…</text>
    </g></g>
  <rect x="60" y="568" width="250" height="34" rx="17" fill="#e2f2e8"/>
  <text x="77" y="590" font-family="Arial, sans-serif" font-size="13" font-weight="700" fill="#2f7a52">FREE TEMPLATE · SELF-HOSTED n8n</text>
  <text x="1135" y="591" text-anchor="end" font-family="Arial, sans-serif" font-size="13" fill="#627067">wafly.io</text>
</svg>